<?xml version="1.0" encoding="UTF-8" standalone="no"?>
<!-- Created with Inkscape (http://www.inkscape.org/) -->

<svg
   xmlns:dc="http://purl.org/dc/elements/1.1/"
   xmlns:cc="http://creativecommons.org/ns#"
   xmlns:rdf="http://www.w3.org/1999/02/22-rdf-syntax-ns#"
   xmlns:svg="http://www.w3.org/2000/svg"
   xmlns="http://www.w3.org/2000/svg"
   xmlns:sodipodi="http://sodipodi.sourceforge.net/DTD/sodipodi-0.dtd"
   xmlns:inkscape="http://www.inkscape.org/namespaces/inkscape"
   version="1.0"
   width="600"
   height="600"
   id="svg1961"
   inkscape:version="0.48.1 r9760"
   sodipodi:docname="Zeichen_274-56.svg">
  <metadata
     id="metadata12">
    <rdf:RDF>
      <cc:Work
         rdf:about="">
        <dc:format>image/svg+xml</dc:format>
        <dc:type
           rdf:resource="http://purl.org/dc/dcmitype/StillImage" />
      </cc:Work>
    </rdf:RDF>
  </metadata>
  <sodipodi:namedview
     pagecolor="#ffffff"
     bordercolor="#666666"
     borderopacity="1"
     objecttolerance="10"
     gridtolerance="10"
     guidetolerance="10"
     inkscape:pageopacity="0"
     inkscape:pageshadow="2"
     inkscape:window-width="640"
     inkscape:window-height="484"
     id="namedview10"
     showgrid="false"
     inkscape:zoom="0.39333333"
     inkscape:cx="300"
     inkscape:cy="300"
     inkscape:window-x="0"
     inkscape:window-y="0"
     inkscape:window-maximized="0"
     inkscape:current-layer="svg1961" />
  <defs
     id="defs1963" />
  <g
     transform="translate(0.62188,-134.606)"
     id="layer1">
    <path
       d="M 591.95264,434.74696 C 593.09662,287.86662 481.45088,162.26431 335.97021,144.44513 C 168.29633,123.44973 18.636786,248.23779 7.3113803,416.57787 C -2.5874147,584.50073 131.06315,727.83475 299.63202,727.0676 C 460.35453,728.16448 592.98223,595.36181 591.95264,434.74696"
       style="fill:#fffefe;fill-rule:evenodd;stroke:black;stroke-width:1.1739316;stroke-opacity:1"
       id="path10" />
    <path
       d="M 591.69875,434.80787 L 591.29499,416.63878 M 591.29499,416.63878 L 586.85366,379.89681 M 586.85366,379.89681 L 577.56724,344.36613 M 577.56724,344.36613 L 564.24322,310.04673 M 564.24322,310.04673 L 546.47788,278.14986 M 546.47788,278.14986 L 524.67496,248.27178 M 524.67496,248.27178 L 499.64199,221.62377 M 499.64199,221.62377 L 471.37893,198.20582 M 471.37893,198.20582 L 440.28959,178.42168 M 440.28959,178.42168 L 407.18144,162.67514 M 407.18144,162.67514 L 372.05453,151.36992 M 372.05453,151.36992 L 335.71632,144.50604 M 335.71632,144.50604 L 299.37813,142.08349 M 299.37813,142.08349 L 262.63617,144.50604 M 262.63617,144.50604 L 226.70172,151.36992 M 226.70172,151.36992 L 191.5748,162.67514 M 191.5748,162.67514 L 158.46666,178.42168 M 158.46666,178.42168 L 127.37732,198.20582 M 127.37732,198.20582 L 99.114266,221.62377 M 99.114266,221.62377 L 74.081283,248.27178 M 74.081283,248.27178 L 52.278363,278.14986 M 52.278363,278.14986 L 34.513021,310.04673 M 34.513021,310.04673 L 21.189014,344.36613 M 21.189014,344.36613 L 11.902585,379.89681 M 11.902585,379.89681 L 7.0574922,416.63878 M 7.0574922,416.63878 L 7.0574922,452.97698 M 7.0574922,452.97698 L 11.902585,489.71893 M 11.902585,489.71893 L 21.189014,525.24962 M 21.189014,525.24962 L 34.513021,559.16528 M 34.513021,559.16528 L 52.278363,591.4659 M 52.278363,591.4659 L 74.081283,621.34397 M 74.081283,621.34397 L 99.114266,647.99199 M 99.114266,647.99199 L 127.37732,671.40994 M 127.37732,671.40994 L 158.46666,691.19406 M 158.46666,691.19406 L 191.5748,706.94062 M 191.5748,706.94062 L 226.70172,718.24584 M 226.70172,718.24584 L 262.63617,725.10972 M 262.63617,725.10972 L 299.37813,727.12851 M 299.37813,727.12851 L 335.71632,725.10972 M 335.71632,725.10972 L 372.05453,718.24584 M 372.05453,718.24584 L 407.18144,706.94062 M 407.18144,706.94062 L 440.28959,691.19406 M 440.28959,691.19406 L 471.37893,671.40994 M 471.37893,671.40994 L 499.64199,647.99199 M 499.64199,647.99199 L 524.67496,621.34397 M 524.67496,621.34397 L 546.47788,591.4659 M 546.47788,591.4659 L 564.24322,559.16528 M 564.24322,559.16528 L 577.56724,525.24962 M 577.56724,525.24962 L 586.85366,489.71893 M 586.85366,489.71893 L 591.29499,452.97698 M 591.29499,452.97698 L 591.69875,434.80787"
       id="path14" />
    <path
       d="M 577.25603,434.71143 C 577.71363,294.64114 472.93175,176.59581 334.19386,158.94488 C 175.51705,138.81082 31.52356,257.36757 22.089087,417.34986 C 11.712512,577.4129 139.26632,712.78614 299.47069,712.49679 C 452.43432,712.94766 577.88186,587.78947 577.25603,434.71143"
       style="fill:#c1121c;fill-opacity:1;fill-rule:evenodd;stroke:none"
       id="path16" />
    <path
       d="M 504.08836,434.63645 C 504.39791,331.94066 426.91007,243.75996 324.81991,231.54629 C 208.09354,216.52649 102.0331,304.28326 95.081736,421.71621 C 87.645864,540.16528 181.13599,638.77639 299.38318,639.34165 C 412.96697,638.43992 503.57021,548.65766 504.08836,434.63645"
       style="fill:#fffefe;fill-rule:evenodd;stroke:none"
       id="path18" />
    <path
       d="M 220.0529,315.08708 L 258.4099,315.08708 L 207.13266,417.2378 C 234.1777,407.23133 261.46499,416.36971 276.579,441.05949 C 290.37405,466.4626 287.0767,517.89461 262.44747,537.55761 C 232.48192,564.81799 189.36059,561.7427 162.71931,531.50125 C 149.67792,514.55688 146.2931,498.25853 147.3765,477.3977 L 147.3765,474.16764 L 147.78027,467.70752 L 148.99154,461.65115 L 150.60657,455.59477 L 153.02912,449.53841 L 154.24039,446.71211 L 220.0529,315.08708 z M 181.29216,477.3977 C 175.18197,532.98843 246.97009,536.52802 249.52722,487.89541 C 256.32381,431.44334 183.75509,428.73144 181.29216,477.3977 z M 313.7247,487.89541 C 320.85776,423.46912 285.03099,330.98167 373.48087,313.47204 C 413.9643,308.64714 450.45728,340.1739 450.19484,381.30335 C 443.08197,446.58425 478.88857,537.5105 390.4387,555.72672 C 349.34288,560.34974 313.76509,529.51609 313.7247,487.89541 z M 347.64036,487.89541 L 347.64036,381.30335 L 348.04413,378.8808 L 348.44787,374.84323 L 349.2554,370.80565 L 350.87042,366.76807 L 352.88921,362.73049 C 359.85404,353.74688 366.09209,349.23152 377.51844,347.38769 C 398.29851,344.75654 415.9158,360.47617 415.87542,381.30335 L 415.87542,489.9142 L 415.47167,494.35553 L 414.26039,498.3931 L 412.64537,502.43069 L 410.62659,506.0645 C 405.52577,514.82605 395.89615,520.43156 385.99736,521.81106 C 376.06491,522.83391 365.66143,519.67114 358.54182,512.52462 C 349.9014,504.26779 348.87856,499.08623 347.64036,487.89541"
       style="fill:black;fill-rule:evenodd;stroke:none"
       id="path20" />
  </g>
</svg>
