<?xml version="1.0" standalone="no"?>
<!DOCTYPE svg PUBLIC "-//W3C//DTD SVG 1.1//EN" "http://www.w3.org/Graphics/SVG/1.1/DTD/svg11.dtd">
<svg width="1250" height="1600" version="1.1" xmlns="http://www.w3.org/2000/svg">
<path fill="white" stroke="black" stroke-width="1" d="M60 1600A60 60 0 0 1 0 1540L0 60A60 60 0 0 1 60 0L1190 0A60 60 0 0 1 1250 60L1250 1540A60 60 0 0 1 1190 1600L60 1600Z" />
<path fill="black" stroke="none" d="M60 1585A45 45 0 0 1 15 1540L15 60A45 45 0 0 1 60 15L1190 15A45 45 0 0 1 1235 60L1235 1540A45 45 0 0 1 1190 1585L60 1585Z" />
<path fill="white" stroke="none" d="M60 1565A25 25 0 0 1 35 1540L35 60A25 25 0 0 1 60 35L1190 35A25 25 0 0 1 1215 60L1215 1540A25 25 0 0 1 1190 1565L60 1565Z" />
<path fill="black" stroke="none" fill-rule="evenodd" d="M445 293L400.000098923186 304.618924496316A12 12 0 0 1 385.437666759944 289.788699633188A12 12 0 0 1 387.028768958084 286.323582434515L475 155L562.971231041916 286.323582434515A12 12 0 0 1 553.796331697025 304.973548172046A12 12 0 0 1 549.999901076814 304.618924496316L505 293L505 715.29A60 60 0 0 0 522.573593128807 757.716406871193L685 920.15L685 1005L480.147186257614 800.142813742386A120 120 0 0 1 445 715.29L445 293ZM745 293L700.000098923186 304.618924496316A12 12 0 0 1 685.437666759944 289.788699633188A12 12 0 0 1 687.028768958083 286.323582434515L775 155L862.971231041917 286.323582434515A12 12 0 0 1 853.796331697025 304.973548172046A12 12 0 0 1 849.999901076814 304.618924496316L805 293L805 1445L745 1445L745 293Z" />
</svg>
