<?xml version="1.0" encoding="UTF-8" standalone="no"?>
<!-- Created with Inkscape (http://www.inkscape.org/) -->
<svg
   xmlns:svg="http://www.w3.org/2000/svg"
   xmlns="http://www.w3.org/2000/svg"
   version="1.0"
   width="725"
   height="725"
   id="svg2">
  <defs
     id="defs9" />
  <circle
     cx="362.5"
     cy="362.5"
     r="350"
     style="fill:white;stroke:black;stroke-width:2.5px"
     id="circle4" />
  <g
     id="g6479">
    <path
       d="M 139.9422,430.14012 L 343.03311,430.14012 L 343.10947,244.57292 C 343.10947,238.10386 333.90189,227.43093 326.41722,227.43093 L 156.65343,227.59688 C 148.88616,227.59688 140.08844,237.27433 140.08844,243.92974 L 139.9422,430.14012 z "
       style="fill:#999;fill-opacity:1;fill-rule:evenodd;stroke:none;stroke-width:1px;stroke-linecap:butt;stroke-linejoin:miter;stroke-opacity:1"
       id="path3776" />
    <g
       transform="matrix(1.198889,0,0,1.198889,-1047.94,-462.5238)"
       style="fill:#999;fill-opacity:1"
       id="g2857">
      <g
         transform="matrix(0.68555,0,0,0.68555,330.8438,208.2917)"
         style="fill:#999;fill-opacity:1"
         id="g2862">
        <path
           d="M 967.10659,787.76233 L 995.36329,787.76233 L 998.77742,792.92593 L 998.88345,865.44968 L 993.58201,870.60269 L 968.07145,870.92078 L 963.69246,866.52057 L 963.90452,791.3355 L 967.10659,787.76233 z "
           style="fill:#999;fill-opacity:1;fill-rule:evenodd;stroke:none;stroke-width:1px;stroke-linecap:butt;stroke-linejoin:miter;stroke-opacity:1"
           id="path3780" />
        <path
           d="M 1008.3161,788.2661 L 1005.0974,791.8286 L 1004.8786,867.0161 L 1009.2849,871.42235 L 1034.7849,871.10985 L 1040.0974,865.9536 L 1040.0661,842.2036 L 1042.9724,839.1411 L 1063.0974,839.04735 L 1063.1286,839.98485 L 1065.9411,839.92235 C 1066.0261,841.9284 1077.1852,852.17233 1087.4724,852.17235 L 1087.4724,852.10985 C 1097.7507,852.08928 1108.8562,841.89512 1108.9411,839.8911 L 1111.7536,839.9536 L 1111.8161,838.98485 L 1131.9411,839.10985 L 1134.7224,842.0161 L 1134.6599,867.0161 L 1139.0349,871.42235 L 1164.5349,871.10985 L 1169.8474,865.9536 L 1169.7224,793.42235 L 1166.3161,788.2661 L 1138.0661,788.2661 L 1134.8474,791.8286 L 1134.7849,815.5786 L 1130.7536,819.73485 L 1111.7849,819.67235 L 1111.8161,818.7036 L 1108.7536,818.67235 C 1108.7536,815.78179 1097.7449,806.60985 1087.4411,806.60985 L 1087.4411,806.6411 C 1077.1465,806.66023 1066.1598,815.84728 1066.1599,818.73485 L 1063.0974,818.73485 L 1063.0974,819.73485 L 1044.1286,819.7661 L 1040.0036,815.5161 L 1039.9724,793.42235 L 1036.5661,788.2661 L 1008.3161,788.2661 z "
           style="fill:#999;fill-opacity:1;fill-rule:evenodd;stroke:none;stroke-width:1px;stroke-linecap:butt;stroke-linejoin:miter;stroke-opacity:1"
           id="path3784" />
        <path
           d="M 1178.9457,787.66901 L 1207.2024,787.66901 L 1210.6165,792.83261 L 1210.7225,865.35636 L 1205.4211,870.50937 L 1179.9105,870.82746 L 1175.5315,866.42725 L 1175.7436,791.24218 L 1178.9457,787.66901 z "
           style="fill:#999;fill-opacity:1;fill-rule:evenodd;stroke:none;stroke-width:1px;stroke-linecap:butt;stroke-linejoin:miter;stroke-opacity:1"
           id="path3788" />
      </g>
    </g>
  </g>
  <path
     d="M 378.81793,430.86821 C 378.25927,389.68626 376.02459,425.12187 400.8455,364.06725 C 418.80274,322.56605 400.60608,333.73944 493.50487,332.22304 C 576.18803,333.89906 559.50775,321.92756 578.50252,365.98267 C 602.2859,422.40834 600.45027,392.87865 600.29066,429.67104 C 599.41275,470.0549 614.33722,459.6796 489.19514,461.03638 C 365.01081,459.36036 379.69585,469.89527 378.81793,430.86821 z M 403.95806,391.12282 L 420.95762,351.85631 C 424.12932,344.88132 423.11741,345.91096 430.53481,345.87056 L 549.38666,345.85776 C 555.82073,345.8814 554.8768,345.46362 557.52728,351.60407 L 574.43223,390.64395 L 403.95806,391.12282 z M 391.80036,465.54121 L 423.59134,465.47025 C 423.4938,505.38411 426.80147,503.15831 409.46496,503.41547 C 388.82079,503.33568 392.08414,505.41959 391.80036,465.54121 z M 555.51724,465.82497 L 587.36142,465.82497 C 587.14861,505.80091 590.05723,503.06963 572.03791,503.17604 C 553.40672,502.92775 555.77441,505.87184 555.51724,465.82497 z "
     style="fill:#999;fill-opacity:1;fill-rule:evenodd;stroke:none"
     id="path1899" />
  <circle
     cx="362.5"
     cy="362.5"
     r="290"
     transform="matrix(1.143036,0,0,1.143036,-51.85055,-51.85055)"
     style="fill:none;stroke:black;stroke-width:10;stroke-miterlimit:4;stroke-dasharray:none;stroke-opacity:1"
     id="circle6" />
  <path
     d="M 1527.1882,368.42609 L 1526.6952,346.24279 M 1526.6952,346.24279 L 1521.2727,301.38322 M 1521.2727,301.38322 L 1509.9345,258.00253 M 1509.9345,258.00253 L 1493.6668,216.10074 M 1493.6668,216.10074 L 1471.9764,177.15672 M 1471.9764,177.15672 L 1445.3565,140.67751 M 1445.3565,140.67751 L 1414.7928,108.14199 M 1414.7928,108.14199 L 1380.2854,79.550179 M 1380.2854,79.550179 L 1342.3273,55.395027 M 1342.3273,55.395027 L 1301.9044,36.169497 M 1301.9044,36.169497 L 1259.0167,22.366552 M 1259.0167,22.366552 L 1214.6501,13.986193 M 1214.6501,13.986193 L 1170.2835,11.02842 M 1170.2835,11.02842 L 1125.4239,13.986193 M 1125.4239,13.986193 L 1081.5503,22.366552 M 1081.5503,22.366552 L 1038.6626,36.169497 M 1038.6626,36.169497 L 998.23965,55.395027 M 998.23965,55.395027 L 960.28155,79.550179 M 960.28155,79.550179 L 925.77419,108.14199 M 925.77419,108.14199 L 895.21053,140.67751 M 895.21053,140.67751 L 868.59056,177.15672 M 868.59056,177.15672 L 846.90022,216.10074 M 846.90022,216.10074 L 830.63247,258.00253 M 830.63247,258.00253 L 819.29433,301.38322 M 819.29433,301.38322 L 813.37878,346.24279 M 813.37878,346.24279 L 813.37878,390.60939 M 813.37878,390.60939 L 819.29433,435.46896 M 819.29433,435.46896 L 830.63247,478.84965 M 830.63247,478.84965 L 846.90022,520.25848 M 846.90022,520.25848 L 868.59056,559.69546 M 868.59056,559.69546 L 895.21053,596.17467 M 895.21053,596.17467 L 925.77419,628.71019 M 925.77419,628.71019 L 960.28155,657.30199 M 960.28155,657.30199 L 998.23965,681.45714 M 998.23965,681.45714 L 1038.6626,700.68268 M 1038.6626,700.68268 L 1081.5503,714.48562 M 1081.5503,714.48562 L 1125.4239,722.86599 M 1125.4239,722.86599 L 1170.2835,725.3308 M 1170.2835,725.3308 L 1214.6501,722.86599 M 1214.6501,722.86599 L 1259.0167,714.48562 M 1259.0167,714.48562 L 1301.9044,700.68268 M 1301.9044,700.68268 L 1342.3273,681.45714 M 1342.3273,681.45714 L 1380.2854,657.30199 M 1380.2854,657.30199 L 1414.7928,628.71019 M 1414.7928,628.71019 L 1445.3565,596.17467 M 1445.3565,596.17467 L 1471.9764,559.69546 M 1471.9764,559.69546 L 1493.6668,520.25848 M 1493.6668,520.25848 L 1509.9345,478.84965 M 1509.9345,478.84965 L 1521.2727,435.46896 M 1521.2727,435.46896 L 1526.6952,390.60939 M 1526.6952,390.60939 L 1527.1882,368.42609"
     id="path86" />
  <path
     d="M 1443.8776,188.98781 C 1631.9838,491.51057 1293.3762,830.12636 990.84521,642.02017 L 1443.8776,188.98781"
     style="fill:none;fill-opacity:1;fill-rule:evenodd;stroke:none"
     id="path100" />
  <g
     transform="translate(-795.9656,1.917989)"
     id="g2830">
    <path
       d="M 1360.911,104.19829 L 1366.3336,108.14199 L 1371.2632,111.59273 L 908.85799,573.63824 L 901.46355,563.28603 L 1360.911,104.19829"
       style="fill:black;fill-rule:evenodd;stroke:none"
       id="path92" />
    <path
       d="M 1386.9233,122.4379 L 1391.36,126.87456 L 1395.7967,130.81826 L 931.46616,595.14872 L 923.08581,586.2754 L 1386.9233,122.4379"
       style="fill:black;fill-rule:evenodd;stroke:none"
       id="path94" />
    <path
       d="M 1417.3723,152.01564 L 1412.9356,147.57898 L 1408.499,142.64935 L 944.34835,606.97982 L 953.71463,615.85314 L 1417.3723,152.01564"
       style="fill:black;fill-rule:evenodd;stroke:none"
       id="path96" />
    <path
       d="M 1434.5113,175.18487 L 1430.5676,169.76228 L 1426.6239,164.83266 L 966.69006,624.76649 L 971.61968,628.71019 L 977.04227,632.65388 L 1434.5113,175.18487"
       style="fill:black;fill-rule:evenodd;stroke:none"
       id="path98" />
    <path
       d="M 1339.8283,86.393619 L 1345.2509,90.337319 L 1350.1805,93.788059 L 889.75367,554.21485 L 886.30293,549.28523 L 882.35923,543.86264 L 1339.8283,86.393619"
       style="fill:black;fill-rule:evenodd;stroke:none"
       id="path2828" />
  </g>
</svg>
