<?xml version="1.0" encoding="UTF-8" standalone="no"?>
<!-- Created with Inkscape (http://www.inkscape.org/) -->

<svg
   xmlns:dc="http://purl.org/dc/elements/1.1/"
   xmlns:cc="http://creativecommons.org/ns#"
   xmlns:rdf="http://www.w3.org/1999/02/22-rdf-syntax-ns#"
   xmlns:svg="http://www.w3.org/2000/svg"
   xmlns="http://www.w3.org/2000/svg"
   xmlns:sodipodi="http://sodipodi.sourceforge.net/DTD/sodipodi-0.dtd"
   xmlns:inkscape="http://www.inkscape.org/namespaces/inkscape"
   version="1.0"
   width="600"
   height="600"
   id="svg1931"
   inkscape:version="0.92.1 r15371"
   sodipodi:docname="206.svg">
  <metadata
     id="metadata12">
    <rdf:RDF>
      <cc:Work
         rdf:about="">
        <dc:format>image/svg+xml</dc:format>
        <dc:type
           rdf:resource="http://purl.org/dc/dcmitype/StillImage" />
        <dc:title />
      </cc:Work>
    </rdf:RDF>
  </metadata>
  <sodipodi:namedview
     pagecolor="#ffffff"
     bordercolor="#666666"
     borderopacity="1"
     objecttolerance="10"
     gridtolerance="10"
     guidetolerance="10"
     inkscape:pageopacity="0"
     inkscape:pageshadow="2"
     inkscape:window-width="1665"
     inkscape:window-height="1395"
     id="namedview10"
     showgrid="false"
     showguides="true"
     inkscape:guide-bbox="true"
     inkscape:zoom="1.6685177"
     inkscape:cx="347.49453"
     inkscape:cy="295.20218"
     inkscape:window-x="74"
     inkscape:window-y="0"
     inkscape:window-maximized="0"
     inkscape:current-layer="g3768" />
  <defs
     id="defs1933" />
  <g
     id="g3768"
     transform="matrix(0.99005326,0,0,0.99005326,2.9839853,1.9807328)">
    <path
       sodipodi:nodetypes="cccccccccccccccccc"
       inkscape:connector-curvature="0"
       id="path32"
       style="fill:#ffffff;stroke:#000000;stroke-width:3;stroke-miterlimit:4;stroke-opacity:1;stroke-dasharray:none"
       d="m 188.39816,599.77543 c -8.53266,-0.46698 -15.18641,-3.68185 -20.20958,-7.63473 L 7.85928,431.81139 5.6137715,429.11678 C 2.2203366,423.72967 0.76610316,420.38367 0.22455103,413.39822 l 0,-226.79635 C 1.2924172,176.69058 4.3603614,172.63168 9.2065851,167.29798 L 166.90707,9.0704281 c 6.05214,-5.2776383 9.82215,-7.5690586 19.69468,-8.83829235 l 226.79637,0 c 8.86755,1.00450165 13.79962,3.81669745 19.31137,8.98203475 L 590.79329,167.29798 c 6.10105,6.97835 8.39713,11.54554 8.97455,19.30389 l 0,226.79635 c -0.93978,7.88004 -2.0914,12.49764 -7.62724,18.41317 L 431.81129,592.1407 c -5.08796,4.58227 -10.89599,7.35993 -18.41317,7.63473 l -224.99996,0" />
    <path
       inkscape:connector-curvature="0"
       id="path36"
       style="fill:#c1121c;fill-opacity:1;fill-rule:evenodd;stroke:none"
       d="m 188.39816,569.68561 -158.083795,-158.0838 0,-223.20355 158.083795,-158.083793 223.20355,0 158.0838,158.083793 0,223.20355 -158.0838,158.0838 -223.20355,0" />
    <path
       inkscape:connector-curvature="0"
       id="path38"
       style="fill:#fffefe;fill-rule:evenodd;stroke:none"
       d="m 70.733518,345.13476 29.640712,0 c -3.585328,20.76347 9.73054,37.52994 30.98802,30.08981 7.47754,-3.53292 12.70334,-10.10644 12.96531,-18.30254 -0.47197,0.53355 4.75923,-32.04175 -12.51621,-41.87708 -24.65568,-9.67814 -48.570349,-15.25449 -57.035916,-43.11376 -4.827844,-16.45958 -4.019461,-46.67664 8.982034,-60.17963 35.142202,-39.4461 96.197582,-11.7964 89.820342,43.56287 l -30.08982,0 c 0.53892,-11.77396 1.0479,-23.40569 -10.77843,-29.64072 -7.1033,-3.86227 -18.23353,-3.00898 -23.8024,3.14371 -8.74251,8.2036 -6.98353,21.25748 -6.28742,31.88622 3.25598,19.09431 30.02993,19.15419 42.21556,27.39521 18.39071,9.62574 28.09131,25.11976 28.74251,45.80837 1.1452,28.45059 1.05539,48.27843 -24.25149,65.56885 -39.82035,21.32485 -84.423639,-6.70659 -78.592802,-54.34131 z m 149.550862,59.73053 0,-181.43709 -35.47903,0 0,-28.29341 101.04789,0 0,28.29341 -35.47904,0 0,181.43709 -30.08982,0 z m 80.83831,-48.50298 0,-115.86825 0.44911,-6.28741 1.79639,-5.83833 2.24551,-5.83833 3.14372,-5.83831 c 6.98353,-12.05838 22.75448,-21.80389 36.37724,-22.90419 30.51646,-3.8473 56.19759,19.28143 57.03592,49.85029 l 0,112.72453 -0.44911,3.1437 -0.4491,6.28743 -1.79641,6.28743 -2.2455,5.83831 -3.14372,5.38923 c -6.87874,11.84879 -22.82933,22.07335 -36.37724,22.90419 -28.997,4.37873 -57.97154,-20.18713 -56.58681,-49.85029 z m 29.64071,0 0,-113.62274 0.44911,-2.69461 0.4491,-2.6946 1.3473,-2.24551 0.89821,-2.24551 c 4.88771,-6.12276 6.99101,-7.83682 14.82035,-9.43114 12.3503,-1.45958 23.31587,7.63473 23.35329,20.20958 l 0,114.07184 -0.44911,2.2455 -0.44909,2.69461 -0.8982,2.24551 -1.34731,2.24551 c -4.22156,6.10029 -7.53742,7.91167 -14.82035,9.43113 -12.05839,1.89371 -23.26348,-8.15867 -23.3533,-20.20957 z m 101.04789,48.50298 0,-209.7305 c 41.56436,-4.00448 94.46854,-5.26197 97.45506,48.50299 5.94312,52.29041 -11.33233,83.62274 -67.36525,79.0419 l 0,82.18561 -30.08981,0 z M 461.9011,223.4282 c 17.98653,-1.59431 37.3952,-1.99102 39.52095,20.20958 2.4027,38.0988 2.13324,54.96256 -39.52095,50.74849 l 0,-70.95807" />
  </g>
</svg>
