<?xml version="1.0" encoding="UTF-8" standalone="no"?>
<svg
   xmlns:dc="http://purl.org/dc/elements/1.1/"
   xmlns:cc="http://creativecommons.org/ns#"
   xmlns:rdf="http://www.w3.org/1999/02/22-rdf-syntax-ns#"
   xmlns:svg="http://www.w3.org/2000/svg"
   xmlns="http://www.w3.org/2000/svg"
   viewBox="0 0 968.81702 242.18674"
   height="242.18674"
   width="968.81702"
   xml:space="preserve"
   version="1.1"
   id="svg32398"><metadata
     id="metadata32404"><rdf:RDF><cc:Work
         rdf:about=""><dc:format>image/svg+xml</dc:format><dc:type
           rdf:resource="http://purl.org/dc/dcmitype/StillImage" /><dc:title></dc:title></cc:Work></rdf:RDF></metadata><defs
     id="defs32402"><clipPath
       id="clipPath32418"
       clipPathUnits="userSpaceOnUse"><path
         id="path32420"
         d="M 0,0 776,0 776,194 0,194 0,0 Z" /></clipPath></defs><g
     transform="matrix(1.25,0,0,-1.25,0,242.18674)"
     id="g32406"><g
       id="g32408" /><g
       id="g32410"><g
         transform="translate(0,-0.25061)"
         id="g32412"><g
           id="g32414"><g
             clip-path="url(#clipPath32418)"
             id="g32416"><g
               id="g32422"><path
                 id="path32424"
                 style="fill:#f0c900;fill-opacity:1;fill-rule:nonzero;stroke:none"
                 d="m 23.254,193.621 c -12.609,0 -22.863,-10.254 -22.863,-22.859 l 0,-147.258 C 0.391,10.895 10.645,0.629 23.254,0.629 l 588.558,0 c 12.157,0 24.149,3.223 34.684,9.301 L 763.23,77.32 c 3.477,2 6.375,4.903 8.379,8.375 3.051,5.293 3.864,11.457 2.282,17.356 -1.582,5.898 -5.364,10.828 -10.661,13.883 l -116.734,67.402 c -10.535,6.078 -22.527,9.285 -34.684,9.285" /><path
                 id="path32426"
                 style="fill:#000000;fill-opacity:1;fill-rule:nonzero;stroke:none"
                 d="M 23.254,1.02 C 10.855,1.02 0.77,11.105 0.77,23.504 l 0,147.258 c 0,12.383 10.085,22.468 22.484,22.468 l 588.543,0 c 12.105,0 24.023,-3.195 34.5,-9.246 l 116.738,-67.39 c 5.195,-2.996 8.922,-7.844 10.477,-13.656 1.554,-5.797 0.758,-11.848 -2.239,-17.047 -1.976,-3.418 -4.835,-6.262 -8.238,-8.235 L 646.297,10.25 C 635.82,4.215 623.902,1.02 611.797,1.02 l -588.543,0 z M 611.797,194 23.254,194 C 10.406,194 0,183.594 0,170.762 L 0,23.504 C 0,10.656 10.406,0.25 23.254,0.25 l 588.543,0 c 12.242,0 24.277,3.207 34.894,9.344 l 116.735,67.39 c 3.547,2.059 6.461,4.985 8.504,8.516 2.117,3.641 3.125,7.633 3.125,11.57 0.011,8.039 -4.16,15.883 -11.629,20.2 L 646.691,184.656 C 636.074,190.793 624.039,194 611.797,194" /></g></g></g></g><path
         id="path32428"
         style="fill:#000000;fill-opacity:1;fill-rule:nonzero;stroke:none"
         d="m 23.254,187.949 c -9.625,0 -17.442,-7.801 -17.442,-17.438 l 0,-147.258 c 0,-9.636 7.817,-17.441 17.442,-17.441 l 588.558,0 c 11.235,0 22.258,2.957 31.977,8.558 l 116.738,67.407 c 2.649,1.527 4.848,3.726 6.375,6.386 4.817,8.332 1.961,19.008 -6.375,23.813 l -116.738,67.402 c -9.719,5.617 -20.742,8.571 -31.977,8.571 l -588.558,0 z m 0,-9.692 588.558,0 c 9.524,0 18.883,-2.508 27.133,-7.269 L 755.68,103.585 c 3.715,-2.144 4.976,-6.879 2.832,-10.578 -0.672,-1.176 -1.653,-2.156 -2.832,-2.844 L 638.945,22.777 c -8.25,-4.778 -17.609,-7.285 -27.133,-7.285 l -588.558,0 c -4.289,0 -7.746,3.472 -7.746,7.761 l 0,147.258 c 0,4.274 3.457,7.746 7.746,7.746 z" /><path
         id="path32430"
         style="fill:#000000;fill-opacity:1;fill-rule:nonzero;stroke:none"
         d="m 90.949,137.566 12.356,0 0,-53.047 c 0,-9.231 7.48,-16.711 16.711,-16.711 9.23,0 16.711,7.48 16.711,16.711 l 0,53.047 12.351,0 0,-53.047 c 0,-16.035 -13.012,-29.063 -29.062,-29.063 -16.055,0 -29.067,13.028 -29.067,29.063" /><path
         id="path32432"
         style="fill:#000000;fill-opacity:1;fill-rule:nonzero;stroke:none"
         d="m 165.062,56.183 0,58.129 11.626,0 0,-6.555 c 6.808,8.434 19.164,9.735 27.593,2.93 1.317,-1.067 2.481,-2.285 3.489,-3.656 7.605,9.328 21.347,10.714 30.664,3.093 5.07,-4.132 8.011,-10.336 8.011,-16.879 l 0,-37.062 -11.625,0 0,35.605 c 0,6.43 -5.199,11.629 -11.629,11.629 -6.414,0 -11.625,-5.199 -11.625,-11.629 l 0,-35.605 -11.625,0 0,35.605 c 0,6.43 -5.199,11.629 -11.625,11.629 -6.418,0 -11.628,-5.199 -11.628,-11.629 l 0,-35.605" /><path
         id="path32434"
         style="fill:#000000;fill-opacity:1;fill-rule:nonzero;stroke:none"
         d="m 282.781,56.183 -7.269,0 c -7.215,0 -13.086,5.871 -13.086,13.082 l 0,68.301 11.629,0 0,-66.844 c 0,-2.016 1.636,-3.641 3.64,-3.641 l 5.086,0" /><path
         id="path32436"
         style="fill:#000000;fill-opacity:1;fill-rule:nonzero;stroke:none"
         d="m 306.031,91.062 24.696,0 c 0,6.82 -5.52,12.355 -12.34,12.355 -6.821,0 -12.356,-5.535 -12.356,-12.355 z m 36.321,-10.168 -36.321,0 0,-1.445 c 0,-5.055 3.071,-9.61 7.762,-11.485 6.457,-2.578 13.852,-0.758 18.391,4.508 l 8.812,-7.562 c -7.762,-9.063 -20.437,-12.172 -31.519,-7.731 -9.102,3.641 -15.071,12.453 -15.071,22.27 l 0,11.613 c 0,13.25 10.731,23.98 23.981,23.98 13.238,0 23.965,-10.73 23.965,-23.98" /><path
         id="path32438"
         style="fill:#000000;fill-opacity:1;fill-rule:nonzero;stroke:none"
         d="m 369.977,125.941 -11.629,0 0,11.625 11.629,0 0,-11.625 z m -11.629,-69.758 0,58.129 11.629,0 0,-58.129" /><path
         id="path32440"
         style="fill:#000000;fill-opacity:1;fill-rule:nonzero;stroke:none"
         d="m 412.109,56.183 -7.254,0 c -7.23,0 -13.085,5.871 -13.085,13.082 l 0,35.609 -5.813,0 0,9.438 5.813,0 0,17.441 11.628,0 0,-17.441 8.711,0 0,-9.438 -8.711,0 0,-34.152 c 0,-2.016 1.625,-3.641 3.625,-3.641 l 5.086,0" /><path
         id="path32442"
         style="fill:#000000;fill-opacity:1;fill-rule:nonzero;stroke:none"
         d="m 471.695,56.183 -11.625,0 0,6.57 c -6.808,-8.433 -19.16,-9.75 -27.578,-2.929 -4.625,3.714 -7.301,9.332 -7.301,15.254 l 0,39.234 11.629,0 0,-35.606 c 0,-6.414 5.207,-11.625 11.625,-11.625 6.414,0 11.625,5.211 11.625,11.625 l 0,35.606 11.625,0" /><path
         id="path32444"
         style="fill:#000000;fill-opacity:1;fill-rule:nonzero;stroke:none"
         d="m 489.137,56.183 0,58.129 11.625,0 0,-6.555 c 6.808,8.434 19.164,9.735 27.582,2.93 4.621,-3.727 7.297,-9.328 7.297,-15.254 l 0,-39.25 -11.625,0 0,35.605 c 0,6.43 -5.211,11.629 -11.629,11.629 -6.414,0 -11.625,-5.199 -11.625,-11.629 l 0,-35.605" /><path
         id="path32446"
         style="fill:#000000;fill-opacity:1;fill-rule:nonzero;stroke:none"
         d="m 586.5,78.706 0,13.082 c 0,6.43 -5.211,11.629 -11.625,11.629 -6.414,0 -11.625,-5.199 -11.625,-11.629 l 0,-13.082 c 0,-6.414 5.211,-11.625 11.625,-11.625 6.414,0 11.625,5.211 11.625,11.625 z m 11.629,35.606 0,-58.856 c 0,-8.796 -4.973,-16.851 -12.848,-20.789 -11.121,-5.558 -24.597,-2.648 -32.426,6.993 l 9.02,7.339 c 4.398,-5.421 11.965,-7.062 18.195,-3.937 3.938,1.976 6.43,5.996 6.43,10.394 l 0,7.297 c -6.809,-8.433 -19.16,-9.75 -27.578,-2.929 -4.625,3.714 -7.301,9.332 -7.301,15.254 l 0,20.355 c 0,10.828 8.785,19.609 19.625,19.609 5.91,0 11.527,-2.675 15.254,-7.285 l 0,6.555" /></g></g></svg>