<?xml version="1.0" encoding="UTF-8" standalone="no"?>
<svg
   xmlns:dc="http://purl.org/dc/elements/1.1/"
   xmlns:cc="http://creativecommons.org/ns#"
   xmlns:rdf="http://www.w3.org/1999/02/22-rdf-syntax-ns#"
   xmlns:svg="http://www.w3.org/2000/svg"
   xmlns="http://www.w3.org/2000/svg"
   viewBox="0 0 833.83099 230.21455"
   height="230.21455"
   width="833.83099"
   xml:space="preserve"
   version="1.1"
   id="svg9302"><metadata
     id="metadata9308"><rdf:RDF><cc:Work
         rdf:about=""><dc:format>image/svg+xml</dc:format><dc:type
           rdf:resource="http://purl.org/dc/dcmitype/StillImage" /><dc:title></dc:title></cc:Work></rdf:RDF></metadata><defs
     id="defs9306"><clipPath
       id="clipPath9322"
       clipPathUnits="userSpaceOnUse"><path
         id="path9324"
         d="M 0,0 668,0 668,185 0,185 0,0 Z" /></clipPath></defs><g
     transform="matrix(1.25,0,0,-1.25,0,230.21456)"
     id="g9310"><g
       id="g9312" /><g
       id="g9314"><g
         transform="translate(0,-0.828354)"
         id="g9316"><g
           id="g9318"><g
             clip-path="url(#clipPath9322)"
             id="g9320"><g
               id="g9326"><path
                 id="path9328"
                 style="fill:#ffffff;fill-opacity:1;fill-rule:nonzero;stroke:none"
                 d="M 17.719,1.172 C 8.117,1.172 0.332,8.945 0.332,18.555 l 0,148.738 c 0,9.598 7.785,17.375 17.387,17.375 l 493.508,0 c 9.156,0 18.148,-2.402 26.082,-6.984 l 120.73,-69.704 c 8.324,-4.804 11.168,-15.445 6.363,-23.757 -1.531,-2.629 -3.714,-4.836 -6.363,-6.356 L 537.309,8.164 C 529.375,3.574 520.383,1.172 511.227,1.172" /><path
                 id="path9330"
                 style="fill:#000000;fill-opacity:1;fill-rule:nonzero;stroke:none"
                 d="m 0.668,18.555 0,148.738 c 0,9.391 7.648,17.051 17.051,17.051 l 493.508,0 c 9.089,0 18.05,-2.414 25.914,-6.953 l 120.73,-69.703 c 8.149,-4.7 10.945,-15.153 6.246,-23.301 -1.508,-2.586 -3.656,-4.754 -6.246,-6.223 L 537.141,8.445 C 529.277,3.898 520.316,1.504 511.227,1.504 l -493.508,0 C 8.316,1.504 0.668,9.145 0.668,18.555 Z M 17.719,185 C 7.953,185 0,177.059 0,167.293 L 0,18.555 C 0,8.781 7.953,0.828 17.719,0.828 l 493.508,0 c 9.207,0 18.277,2.434 26.246,7.039 l 120.734,69.715 c 2.684,1.543 4.922,3.777 6.488,6.484 4.883,8.45 1.973,19.317 -6.488,24.2 L 537.473,177.969 C 529.504,182.578 520.434,185 511.227,185" /></g></g></g></g><path
         id="path9332"
         style="fill:#154889;fill-opacity:1;fill-rule:nonzero;stroke:none"
         d="m 17.719,10 c -4.266,0 -7.727,3.461 -7.727,7.726 l 0,148.739 c 0,4.265 3.461,7.714 7.727,7.714 l 493.508,0 c 7.461,0 14.785,-1.96 21.257,-5.687 L 653.215,98.789 c 3.687,-2.137 4.961,-6.863 2.824,-10.563 -0.668,-1.175 -1.648,-2.144 -2.824,-2.824 L 532.484,15.699 C 526.012,11.961 518.688,10 511.227,10" /><path
         id="path9334"
         style="fill:#ffffff;fill-opacity:1;fill-rule:nonzero;stroke:none"
         d="m 502.547,51.527 -7.235,0 c -7.207,0 -13.042,5.844 -13.042,13.039 l 0,35.496 -5.805,0 0,9.414 5.805,0 0,17.383 11.582,0 0,-17.383 8.695,0 0,-9.414 -8.695,0 0,-34.054 c 0,-2 1.625,-3.618 3.625,-3.618 l 5.07,0 0,-10.863 z m -70.981,0 0,57.949 11.582,0 0,-6.539 c 6.793,8.403 19.11,9.707 27.504,2.922 0.008,-0.012 0.024,-0.015 0.032,-0.015 l -8.239,-10.161 c -4.785,4.254 -12.109,3.825 -16.363,-0.949 -1.883,-2.129 -2.934,-4.863 -2.934,-7.707 l 0,-35.496 -11.578,0 -0.004,-0.004 z m -63.742,0 0,81.129 11.578,0 0,-29.719 c 6.797,8.403 19.114,9.707 27.504,2.922 4.602,-3.719 7.278,-9.308 7.278,-15.219 l 0,-39.113 -11.602,0 0,35.496 c 0,6.403 -5.176,11.59 -11.59,11.59 -6.39,0 -11.59,-5.187 -11.59,-11.59 l 0,-35.496 -11.578,0 z m -28.984,25.356 -16.66,0 c -4,0 -7.235,-3.254 -7.235,-7.247 0,-3.992 3.235,-7.246 7.235,-7.246 l 9.422,0 c 4.003,0 7.238,3.254 7.238,7.246 l 0,7.247 z m 11.598,-25.356 -11.598,0 0,5.981 c -2.039,-3.688 -5.922,-5.981 -10.141,-5.981 l -7.246,0 c -9.598,0 -17.375,7.785 -17.375,17.383 0,9.601 7.777,17.387 17.375,17.387 l 17.387,0 0,5.793 c 0,3.168 -2.274,5.875 -5.395,6.421 -4.097,0.719 -8.285,0.719 -12.383,0 -2.039,-0.351 -3.792,-1.664 -4.714,-3.527 l -9.16,7.246 c 2.746,4.078 7.039,6.852 11.874,7.696 5.422,0.953 10.961,0.953 16.383,0 8.66,-1.508 14.993,-9.04 14.993,-17.836 l 0,-40.563 z m -78.235,0 0,48.535 -5.797,0 0,9.414 5.797,0 0,8.688 c 0,8.012 6.492,14.492 14.492,14.492 l 8.688,0 0,-10.863 -7.973,0 c -2,0 -3.617,-1.629 -3.617,-3.629 l 0,-8.688 11.59,0 0,-9.414 -11.59,0 0,-48.535 -11.59,0 z m -65.183,9.285 8.168,8.215 c 6.753,-6.726 16.812,-8.883 25.726,-5.539 3,1.117 4.52,4.461 3.395,7.461 -0.797,2.129 -2.786,3.602 -5.063,3.746 l -12.312,0.777 c -9.582,0.598 -16.868,8.852 -16.27,18.434 0.481,7.617 5.875,14.031 13.297,15.813 10.797,2.589 22.18,0.054 30.855,-6.864 l -7.222,-9.058 c -5.887,4.695 -13.602,6.414 -20.926,4.656 -3.109,-0.754 -5.031,-3.871 -4.285,-6.988 0.597,-2.485 2.734,-4.278 5.273,-4.434 l 12.317,-0.773 c 9.582,-0.59 16.867,-8.844 16.265,-18.426 -0.429,-6.844 -4.832,-12.797 -11.246,-15.196 -13.168,-4.933 -28.012,-1.746 -37.972,8.176 z m -14.493,-9.285 -11.589,0 0,6.539 c -6.786,-8.394 -19.102,-9.695 -27.504,-2.922 -4.602,3.715 -7.266,9.305 -7.266,15.219 l 0,39.113 11.59,0 0,-35.484 c 0,-6.414 5.183,-11.602 11.59,-11.602 6.402,0 11.59,5.188 11.59,11.602 l 0,35.484 11.589,0 0,-57.949 z M 90.738,80.5 l 23.934,0 -11.973,35.496 L 90.738,80.5 Z m -22.797,-28.973 29.688,81.129 10.148,0 29.692,-81.129 -13.031,0 -6.11,18.109 -31.246,0 -6.102,-18.109" /></g></g></svg>