<?xml version="1.0" encoding="UTF-8" standalone="no"?>
<!-- Created with Inkscape (http://www.inkscape.org/) -->

<svg
   xmlns:ns="http://ns.adobe.com/SaveForWeb/1.0/"
   xmlns:dc="http://purl.org/dc/elements/1.1/"
   xmlns:cc="http://creativecommons.org/ns#"
   xmlns:rdf="http://www.w3.org/1999/02/22-rdf-syntax-ns#"
   xmlns:svg="http://www.w3.org/2000/svg"
   xmlns="http://www.w3.org/2000/svg"
   xmlns:sodipodi="http://sodipodi.sourceforge.net/DTD/sodipodi-0.dtd"
   xmlns:inkscape="http://www.inkscape.org/namespaces/inkscape"
   version="1.1"
   width="758.90997"
   height="667.65002"
   viewBox="0 0 758.90998 667.65002"
   id="svg2"
   xml:space="preserve"
   inkscape:version="0.48.1 r9760"
   sodipodi:docname="Zeichen_123.svg"><sodipodi:namedview
   pagecolor="#ffffff"
   bordercolor="#666666"
   borderopacity="1"
   objecttolerance="10"
   gridtolerance="10"
   guidetolerance="10"
   inkscape:pageopacity="0"
   inkscape:pageshadow="2"
   inkscape:window-width="1024"
   inkscape:window-height="720"
   id="namedview9"
   showgrid="false"
   fit-margin-top="0"
   fit-margin-left="0"
   fit-margin-right="0"
   fit-margin-bottom="0"
   inkscape:zoom="0.71515154"
   inkscape:cx="393.72381"
   inkscape:cy="339.79853"
   inkscape:window-x="0"
   inkscape:window-y="0"
   inkscape:window-maximized="0"
   inkscape:current-layer="svg2" /><defs
   id="defs11" />
<metadata
   id="metadata3">
	<ns:sfw>
		<ns:slices />
		<ns:sliceSourceBounds
   bottomLeftOrigin="true"
   x="-75"
   y="93"
   width="745"
   height="655" />
	</ns:sfw>
	<rdf:RDF>
		<cc:Work
   rdf:about="">
			<dc:format>image/svg+xml</dc:format>
			<dc:type
   rdf:resource="http://purl.org/dc/dcmitype/StillImage" />
			<dc:title />
		</cc:Work>
	</rdf:RDF>
	<ns:sfw>
		<ns:slices />
		<ns:sliceSourceBounds
   bottomLeftOrigin="true"
   x="-75"
   y="93"
   width="745"
   height="655" />
	</ns:sfw>
</metadata>
<g
   transform="matrix(1.118133,0,0,1.118133,-41.591102,-41.601731)"
   id="g1875"><path
     inkscape:connector-curvature="0"
     d="m 71.985614,631.52918 c -11.4325,0 -21.99656,-6.09918 -27.71282,-16 -5.71624,-9.90085 -5.71624,-22.09918 0,-32 L 348.84719,55.99085 c 5.71626,-9.90083 16.28032,-16.00001 27.71281,-16.00001 11.43251,0 21.99659,6.09918 27.71283,16.00001 l 304.5744,527.53833 c 5.71624,9.90082 5.71624,22.09915 0,32 -5.71626,9.90081 -16.28032,16 -27.71282,16 l -609.148796,0 z"
     style="fill:#ffffff;fill-rule:evenodd;stroke:#000000;stroke-width:2"
     id="path6" /><path
     inkscape:connector-curvature="0"
     d="m 71.985614,619.52918 c -7.14532,0 -13.74786,-3.81198 -17.32052,-10 -3.57264,-6.18804 -3.57264,-13.81198 0,-20 L 359.23951,61.99086 c 3.57264,-6.18804 10.1752,-10.00002 17.32049,-10.00002 7.14533,0 13.74787,3.81198 17.32053,10.00002 l 304.5744,527.53832 c 3.57264,6.18802 3.57264,13.81196 0,20 -3.57266,6.18802 -10.1752,10 -17.32052,10 l -609.148796,0 z m 69.282086,-60 235.2923,-407.53833 235.29233,407.53833 -470.58463,0 z"
     style="fill:#c1121c;fill-opacity:1;fill-rule:evenodd;stroke:none"
     id="path8" /></g>


<path
   d="m 360.32772,470.0846 c -0.037,-1.172 -0.394,-2.313 -1.03,-3.296 l -25.693,-39.712 -40.21,-21.285 -60.942,115.098 c -1.978,3.755 -3.021,7.93 -3.021,12.17 0,9.639 5.324,18.466 13.842,22.976 l 64.264,-121.387 27.011,41.759 2.022,54.599 c 0.517,13.973 11.995,25.029 25.978,25.029 0.446,0 0.526,0 0.968,-0.011 l -3.189,-85.94 m -53.667,-96.3 -5.134,9.691 -15.344,-12.685 -6.881,13.01 c -7.452,-3.951 -12.114,-11.682 -12.114,-20.114 0,-3.705 0.906,-7.361 2.645,-10.641 l 18.727,-35.348 c 2.809,-5.324 8.334,-8.653 14.354,-8.653 h 57.349 c 14.361,0 25.988,11.645 25.988,26.007 0,0.561 -0.005,1.1 -0.051,1.665 l -6.343,97.532 60.983,50.71 c -2.361,2.796 -5.355,4.972 -8.744,6.364 l -53.094,-43.854 -0.716,11.022 c -11.961,-0.77 -21.273,-10.705 -21.273,-22.7 0,-0.504 0.019,-0.957 0.042,-1.457 l 0.313,-4.742 -14.902,-12.31 5.131,-9.681 10.621,8.767 2.631,-40.745 -24.199,45.711 -40.213,-21.297 36.126,-68.236 h -25.734 l -15.523,29.305 15.355,12.679 z m 99.091,-102.111 c -13.464,0 -24.374,10.91 -24.374,24.371 0,13.467 10.91,24.379 24.374,24.379 13.465,0 24.373,-10.912 24.373,-24.379 0,-13.461 -10.908,-24.371 -24.373,-24.371 z m 25.703,223.349 c 4.621,-1.498 8.733,-4.258 11.869,-7.963 l 25.354,-30.006 c 6.174,-7.298 15.252,-11.507 24.815,-11.507 10.106,0 19.621,4.683 25.776,12.689 l 67.13,87.344 c 0.873,1.139 1.34,2.523 1.34,3.962 0,3.589 -2.902,6.492 -6.49,6.492 h -195 c -3.581,0 -6.493,-2.903 -6.493,-6.492 0,-1.547 0.537,-3.022 1.531,-4.194 l 37.284,-44.111 c 1.571,-1.858 3.626,-3.234 5.937,-3.988 l 6.947,-2.226 z"
   id="path7"
   style="fill:#000000;fill-rule:evenodd;stroke:none"
   inkscape:connector-curvature="0" />
</svg>